<svg xmlns="http://www.w3.org/2000/svg" viewBox="0 0 600 600" role="img" aria-labelledby="title desc">
  <title id="title">Ciudad futurista envuelta en luces neón</title>
  <desc id="desc">Ilustración abstracta de una ciudad nocturna con neones y formas geométricas.</desc>
  <defs>
    <linearGradient id="bg" x1="0%" y1="0%" x2="100%" y2="100%">
      <stop offset="0%" stop-color="#141831" />
      <stop offset="50%" stop-color="#1f2a4d" />
      <stop offset="100%" stop-color="#3a1a4d" />
    </linearGradient>
    <radialGradient id="glow" cx="50%" cy="35%" r="60%">
      <stop offset="0%" stop-color="#58c8ff" stop-opacity="0.9" />
      <stop offset="60%" stop-color="#7f5cff" stop-opacity="0.4" />
      <stop offset="100%" stop-color="#141831" stop-opacity="0.1" />
    </radialGradient>
    <linearGradient id="tower" x1="0%" y1="0%" x2="0%" y2="100%">
      <stop offset="0%" stop-color="#70eaff" />
      <stop offset="60%" stop-color="#5e6bfd" />
      <stop offset="100%" stop-color="#3d2c7d" />
    </linearGradient>
    <linearGradient id="pink" x1="0%" y1="0%" x2="0%" y2="100%">
      <stop offset="0%" stop-color="#ff9ce6" />
      <stop offset="100%" stop-color="#ff5ca8" />
    </linearGradient>
  </defs>
  <rect width="600" height="600" fill="url(#bg)" />
  <circle cx="320" cy="220" r="220" fill="url(#glow)" />
  <g fill-opacity="0.4">
    <polygon points="60,540 120,360 220,420 200,540" fill="#4c5bdc" />
    <polygon points="520,540 480,320 380,360 400,540" fill="#ff4aa5" />
  </g>
  <g>
    <rect x="260" y="210" width="60" height="330" rx="18" fill="url(#tower)" />
    <rect x="170" y="260" width="70" height="280" rx="12" fill="#23336b" />
    <rect x="360" y="240" width="55" height="300" rx="16" fill="#433386" />
    <rect x="120" y="320" width="45" height="220" rx="10" fill="#141d3f" />
    <rect x="430" y="290" width="50" height="260" rx="12" fill="#1d224c" />
  </g>
  <g fill="#83f7ff">
    <rect x="180" y="320" width="50" height="8" opacity="0.5" />
    <rect x="180" y="360" width="50" height="8" opacity="0.6" />
    <rect x="180" y="400" width="50" height="8" opacity="0.7" />
    <rect x="270" y="260" width="40" height="10" opacity="0.8" />
    <rect x="270" y="300" width="40" height="10" opacity="0.7" />
    <rect x="370" y="300" width="35" height="8" opacity="0.6" />
    <rect x="370" y="340" width="35" height="8" opacity="0.7" />
  </g>
  <g fill="#ff9ce6">
    <rect x="270" y="430" width="40" height="10" opacity="0.7" />
    <rect x="270" y="470" width="40" height="10" opacity="0.6" />
    <rect x="370" y="420" width="35" height="8" opacity="0.7" />
  </g>
  <path d="M60 520 C150 470, 230 470, 340 520 S540 600, 600 520" fill="none" stroke="url(#pink)" stroke-width="16" stroke-linecap="round" opacity="0.45" />
</svg>
